<svg xmlns="http://www.w3.org/2000/svg" viewBox="0 0 317.47 237.78"><defs><style>.cls-1,.cls-2,.cls-3{fill:#d3b629;}.cls-1,.cls-2{stroke:#d3b629;stroke-miterlimit:10;}.cls-1{stroke-width:0.95px;}.cls-2{stroke-width:0.75px;}</style></defs><title>quicksteplogo</title><g id="Layer_1" data-name="Layer 1"><rect x="90.29" y="34.24" width="135.9" height="135.9" rx="24.48" ry="24.48"/><path class="cls-1" d="M153.65,116.66a25.07,25.07,0,0,1-3.11,3.6,17.64,17.64,0,0,1-3.15,2.4,12.49,12.49,0,0,1-6.4,1.76,15.26,15.26,0,0,1-3.66-.45,25.47,25.47,0,0,1-3.67-1.2A36.9,36.9,0,0,1,130,121q-1.82-1-3.6-2.09t-3.54-2.22q-1.75-1.13-3.45-2.14t-3.35-1.85a23,23,0,0,0-3.21-1.34q-.87-.28-1.67-.46t-1.55-.3l-1.47-.23c-.48-.07-.94-.15-1.38-.25a13,13,0,0,1-4.5-1.79A12.14,12.14,0,0,1,98.84,105a16.35,16.35,0,0,1-2.24-5,24.67,24.67,0,0,1-.79-6.53,31,31,0,0,1,.43-5.22,25.11,25.11,0,0,1,1.3-4.81,20.2,20.2,0,0,1,2.16-4.15,14.72,14.72,0,0,1,3-3.25,13.41,13.41,0,0,1,3.87-2.13,14,14,0,0,1,4.7-.76A14.75,14.75,0,0,1,117,74.23a12.13,12.13,0,0,1,4.5,3.23,15.07,15.07,0,0,1,2.93,5.34,23.81,23.81,0,0,1,1,7.41,31.09,31.09,0,0,1-.34,4.64,25.5,25.5,0,0,1-1,4.31,20.37,20.37,0,0,1-1.72,3.81,16.21,16.21,0,0,1-2.39,3.17A13.74,13.74,0,0,1,117,108.5a13.23,13.23,0,0,1-3.73,1.42V110a25,25,0,0,1,3.51,1q1.79.65,3.61,1.47t3.67,1.75l3.72,1.86q1.87.92,3.74,1.77t3.73,1.49a30.6,30.6,0,0,0,3.7,1,17.65,17.65,0,0,0,3.66.39,14.16,14.16,0,0,0,2.69-.26,12.43,12.43,0,0,0,2.62-.82,13.13,13.13,0,0,0,2.54-1.48,16.56,16.56,0,0,0,2.42-2.22Zm-42.93-8.17a8.74,8.74,0,0,0,3.28-.59,8.44,8.44,0,0,0,2.63-1.66,10.48,10.48,0,0,0,2-2.59,16.3,16.3,0,0,0,1.41-3.39,25.48,25.48,0,0,0,.82-4,36.35,36.35,0,0,0,.27-4.53,28.67,28.67,0,0,0-.83-7.34A16.24,16.24,0,0,0,118,79.21a9.47,9.47,0,0,0-3.33-3,8.55,8.55,0,0,0-4-1,8.73,8.73,0,0,0-3.28.59,8.45,8.45,0,0,0-2.63,1.66,10.54,10.54,0,0,0-2,2.59,16.41,16.41,0,0,0-1.41,3.39,25.6,25.6,0,0,0-.82,4,36.41,36.41,0,0,0-.27,4.53,28.67,28.67,0,0,0,.83,7.34,16.28,16.28,0,0,0,2.26,5.15,9.5,9.5,0,0,0,3.33,3A8.56,8.56,0,0,0,110.72,108.5Z"/><path class="cls-2" d="M134.35,92.33c0,.56,0,1.15-.05,1.78s-.08,1.27-.13,1.93-.11,1.3-.17,2-.12,1.26-.17,1.84-.1,1.11-.13,1.6-.05.89-.05,1.22a3.34,3.34,0,0,0,.55,2.13,1.8,1.8,0,0,0,1.47.67,3.07,3.07,0,0,0,2.13-1.12,11.74,11.74,0,0,0,2.08-3.27,29.06,29.06,0,0,0,1.69-4.84,30.76,30.76,0,0,0,.89-5.79L145,90.1h.2q-.11,1.16-.2,2.47t-.16,2.61q-.07,1.3-.11,2.55t0,2.3a18.52,18.52,0,0,0,.23,3.26,7.5,7.5,0,0,0,.6,2,2.32,2.32,0,0,0,.84,1,1.85,1.85,0,0,0,.95.28,2.16,2.16,0,0,0,.56-.07,3.94,3.94,0,0,0,.52-.18,3.51,3.51,0,0,0,.45-.23l.35-.22.4.56a5.89,5.89,0,0,1-.81.69,6.09,6.09,0,0,1-1,.56,5.44,5.44,0,0,1-1.05.37,4.67,4.67,0,0,1-1.12.13,3.5,3.5,0,0,1-1.37-.28,3,3,0,0,1-1.18-.94,5.17,5.17,0,0,1-.83-1.76,10.25,10.25,0,0,1-.31-2.74c0-.35,0-.71,0-1.06s0-.74.07-1.14.08-.83.13-1.29.12-1,.19-1.52l-.13,0a32.19,32.19,0,0,1-1.8,5.15,16.62,16.62,0,0,1-2,3.35,6.88,6.88,0,0,1-2,1.82,4.21,4.21,0,0,1-2,.54,3.81,3.81,0,0,1-1.34-.24,2.94,2.94,0,0,1-1.14-.78,3.94,3.94,0,0,1-.8-1.44,6.94,6.94,0,0,1-.3-2.2q0-.86.1-2t.21-2.41q.12-1.28.21-2.64t.1-2.7c0-.36,0-.67,0-.93a2,2,0,0,0-.16-.65.8.8,0,0,0-.36-.38,1.46,1.46,0,0,0-.65-.12,6.34,6.34,0,0,0-1.08.12q-.67.12-1.4.33l-.18-.88q1-.35,1.87-.62t1.54-.43c.45-.11.84-.2,1.15-.26a4.24,4.24,0,0,1,.69-.09,1.45,1.45,0,0,1,.72.16,1.18,1.18,0,0,1,.45.46,2.17,2.17,0,0,1,.24.73A6.33,6.33,0,0,1,134.35,92.33Z"/><path class="cls-2" d="M155,90.43q-.21,1.39-.36,2.8t-.24,2.71q-.09,1.31-.13,2.48t0,2.11q0,1.27,0,2.18c0,.61.06,1.12.12,1.54a5.41,5.41,0,0,0,.21,1,1.58,1.58,0,0,0,.32.58.89.89,0,0,0,.44.26,2.38,2.38,0,0,0,.57.06,5,5,0,0,0,1.27-.18,8.53,8.53,0,0,0,1.38-.5l.23.64a7.49,7.49,0,0,1-1.11.72,14.06,14.06,0,0,1-1.4.67,11.69,11.69,0,0,1-1.44.5,4.76,4.76,0,0,1-1.22.19,3.23,3.23,0,0,1-.62-.05,1,1,0,0,1-.51-.28,2,2,0,0,1-.4-.65,5.28,5.28,0,0,1-.29-1.16q-.12-.73-.18-1.83t-.06-2.67q0-.92,0-2.07t.05-2.48q0-1.33.1-2.8t.16-3a1,1,0,0,1,.18-.56,1.1,1.1,0,0,1,.39-.33,1.77,1.77,0,0,1,.5-.16,3,3,0,0,1,.48,0A3.27,3.27,0,0,1,155,90.43ZM153.9,84.9a1.58,1.58,0,0,1-.76-.18,1.82,1.82,0,0,1-.56-.46,2,2,0,0,1-.35-.66,2.56,2.56,0,0,1,.06-1.74,2.21,2.21,0,0,1,.48-.71,2,2,0,0,1,.65-.43,1.88,1.88,0,0,1,.7-.14,1.77,1.77,0,0,1,.75.15,1.74,1.74,0,0,1,.57.42,1.94,1.94,0,0,1,.37.62,2.16,2.16,0,0,1,.13.75,2.53,2.53,0,0,1-.15.85,2.74,2.74,0,0,1-.41.76,2.07,2.07,0,0,1-.64.55A1.67,1.67,0,0,1,153.9,84.9Z"/><path class="cls-2" d="M169.94,95.08a3,3,0,0,0,.34-1.37,2.43,2.43,0,0,0-.17-.9,2.12,2.12,0,0,0-.49-.75,2.38,2.38,0,0,0-.83-.51,3.22,3.22,0,0,0-1.16-.19,4.19,4.19,0,0,0-1.71.34,4.37,4.37,0,0,0-1.34.92,5.79,5.79,0,0,0-1,1.36,9,9,0,0,0-.67,1.65,11.62,11.62,0,0,0-.38,1.8,13.67,13.67,0,0,0-.12,1.8,9.45,9.45,0,0,0,.41,2.87,7.16,7.16,0,0,0,1.11,2.2,5.09,5.09,0,0,0,1.63,1.41,4.12,4.12,0,0,0,2,.5,5,5,0,0,0,2.26-.58,7.21,7.21,0,0,0,2.22-1.88l.19.1a1.41,1.41,0,0,1,.21.15l.17.17a.26.26,0,0,1,.07.16.1.1,0,0,1,0,.06l0,0a8.15,8.15,0,0,1-2.85,2.88,7.2,7.2,0,0,1-3.65,1,6.26,6.26,0,0,1-2-.3,6,6,0,0,1-1.64-.83,6.22,6.22,0,0,1-1.29-1.26,7.69,7.69,0,0,1-.93-1.58,8.85,8.85,0,0,1-.56-1.79,9.46,9.46,0,0,1-.19-1.89,12.06,12.06,0,0,1,.28-2.58,12.2,12.2,0,0,1,.83-2.48A11.89,11.89,0,0,1,162,93.36a9.38,9.38,0,0,1,1.76-1.8,8,8,0,0,1,2.17-1.2,7.32,7.32,0,0,1,2.53-.43,6.87,6.87,0,0,1,1.87.25,4.83,4.83,0,0,1,1.5.69,3.35,3.35,0,0,1,1,1.08,2.75,2.75,0,0,1,.36,1.4,2.4,2.4,0,0,1-.15.89,1.92,1.92,0,0,1-.43.66,1.81,1.81,0,0,1-.65.42,2.3,2.3,0,0,1-.81.14,2.92,2.92,0,0,1-.56-.06,2.74,2.74,0,0,1-.57-.18Z"/><path class="cls-2" d="M180.92,99.77a18.88,18.88,0,0,0,2.68-1.11,12.13,12.13,0,0,0,2.09-1.33A5.93,5.93,0,0,0,187,95.83a3,3,0,0,0,.48-1.6,1.52,1.52,0,0,0-.47-1.12,1.49,1.49,0,0,0-.5-.31,1.69,1.69,0,0,0-.62-.11,3.2,3.2,0,0,0-1.6.48,6.89,6.89,0,0,0-1.64,1.38,13.85,13.85,0,0,0-1.59,2.22,21.65,21.65,0,0,0-1.43,3,32.16,32.16,0,0,0-1.19,3.66,36.8,36.8,0,0,0-.85,4.26l-2.47.32H175q.08-1.44.17-3.19t.2-3.7q.11-2,.22-4.08t.23-4.33q.12-2.2.24-4.44t.24-4.42q.12-2.18.23-4.28t.21-4a.88.88,0,0,1,.17-.51,1.16,1.16,0,0,1,.41-.34,2.09,2.09,0,0,1,.57-.19,3.46,3.46,0,0,1,.66-.06,3.54,3.54,0,0,1,1.54.39q-.28,2.51-.5,4.6t-.4,3.88q-.18,1.79-.32,3.35t-.26,3q-.11,1.43-.22,2.79t-.2,2.77q-.1,1.41-.2,2.91t-.23,3.23h.07a28.53,28.53,0,0,1,1-2.88,26.21,26.21,0,0,1,1.32-2.7,20,20,0,0,1,1.55-2.36,12.66,12.66,0,0,1,1.74-1.87,8,8,0,0,1,1.87-1.23,4.62,4.62,0,0,1,2-.45,3.2,3.2,0,0,1,1.15.2,2.68,2.68,0,0,1,.91.58,2.61,2.61,0,0,1,.6.9,3.1,3.1,0,0,1,.21,1.17,4.67,4.67,0,0,1-.44,2,7.14,7.14,0,0,1-1.25,1.83,11.71,11.71,0,0,1-1.94,1.67A18.71,18.71,0,0,1,184,99.66q.82,1.51,1.47,2.58t1.19,1.8a10.11,10.11,0,0,0,1,1.16,4.36,4.36,0,0,0,.79.65,2.18,2.18,0,0,0,.68.29,3.05,3.05,0,0,0,.64.07,4.79,4.79,0,0,0,1.32-.2,9.79,9.79,0,0,0,1.38-.51l.23.64a7.53,7.53,0,0,1-1.11.72,13.91,13.91,0,0,1-1.43.67,11.76,11.76,0,0,1-1.49.5,5.36,5.36,0,0,1-1.3.19,2.2,2.2,0,0,1-1.32-.48,7.2,7.2,0,0,1-1.41-1.5,28.38,28.38,0,0,1-1.66-2.58q-.91-1.56-2.08-3.73Z"/></g><g id="_Layer_" data-name="&lt;Layer&gt;"><path class="cls-3" d="M149.6,132.06l3.93-4.69a12.63,12.63,0,0,0,7.71,2.58c1.32,0,1.89-.35,1.89-.95v-.06c0-.63-.69-1-3.05-1.45-4.94-1-9.29-2.42-9.29-7.09v-.06c0-4.19,3.27-7.43,9.35-7.43,4.25,0,7.4,1,9.95,3l-3.59,5a11.55,11.55,0,0,0-6.61-2.17c-1.1,0-1.61.38-1.61.91v.06c0,.6.6,1,2.93,1.42,5.63,1,9.41,2.68,9.41,7.12v.06c0,4.63-3.81,7.46-9.73,7.46C156.43,135.77,152.4,134.51,149.6,132.06Z"/><path class="cls-3" d="M172,129.6v-5.92h-2v-5.51h2v-4.31h7.15v4.31h4v5.51h-4V128c0,1.29.6,1.76,1.73,1.76a5.36,5.36,0,0,0,2.17-.54v5.51a10.3,10.3,0,0,1-4.56,1C174.26,135.74,172,133.79,172,129.6Z"/><path class="cls-3" d="M184.29,126.94v-.06a8.69,8.69,0,0,1,8.85-9c6.11,0,8.94,4.25,8.94,9.48,0,.38,0,.82,0,1.2H191a3.22,3.22,0,0,0,3.24,2.3,4.78,4.78,0,0,0,3.49-1.76l3.84,3.05a9.3,9.3,0,0,1-7.84,3.75C188.09,135.85,184.29,132.3,184.29,126.94Zm11.27-1.58c-.16-1.64-1.13-2.58-2.39-2.58s-2,1-2.27,2.58Z"/><path class="cls-3" d="M203.4,118.25h7.15v2.11a6.37,6.37,0,0,1,5.1-2.52c4.16,0,7.4,3.62,7.4,8.88v.06c0,5.45-3.27,9.07-7.33,9.07a6.41,6.41,0,0,1-5.16-2.36v7H203.4Zm12.72,8.63v-.06a2.87,2.87,0,1,0-5.73,0v.06a2.87,2.87,0,1,0,5.73,0Z"/></g></svg>